<?xml version="1.0" standalone="no"?>
<!DOCTYPE svg PUBLIC "-//W3C//DTD SVG 20010904//EN"
 "http://www.w3.org/TR/2001/REC-SVG-20010904/DTD/svg10.dtd">
<svg version="1.0" xmlns="http://www.w3.org/2000/svg"
 width="96.000000pt" height="96.000000pt" viewBox="0 0 96.000000 96.000000"
 preserveAspectRatio="xMidYMid meet">
<metadata>
Created by potrace 1.14, written by Peter Selinger 2001-2017
</metadata>
<g transform="translate(0.000000,96.000000) scale(0.100000,-0.100000)"
fill="#000000" stroke="none">
<path d="M370 846 c0 -9 5 -16 11 -16 6 0 -12 -12 -42 -28 -56 -29 -92 -78
-87 -116 3 -21 9 -22 111 -26 15 -1 16 -4 6 -16 -9 -11 -8 -18 5 -33 16 -17
15 -18 -11 -15 l-28 4 26 -10 c14 -6 31 -21 37 -35 10 -22 9 -24 -31 -31 -23
-4 -36 -9 -29 -11 19 -7 4 -23 -21 -22 -12 0 -16 3 -9 6 6 2 12 9 12 15 0 7
-5 6 -14 -1 -9 -7 -13 -26 -12 -47 3 -27 0 -34 -15 -34 -30 0 -50 -11 -41 -24
14 -18 32 -124 26 -154 -7 -35 25 -67 57 -59 35 9 73 -17 103 -73 21 -39 27
-60 23 -86 l-6 -34 260 0 259 0 0 31 c0 22 -4 30 -13 26 -27 -10 -156 111
-171 161 -4 12 -13 22 -21 22 -14 0 -25 21 -25 50 0 21 41 158 70 235 25 67
42 164 32 196 -12 42 -47 77 -91 92 -22 8 -41 11 -41 7 0 -14 -29 -5 -52 17
-20 18 -33 20 -88 17 -91 -6 -123 -10 -141 -18 -10 -4 -23 -1 -33 9 -14 15
-16 15 -16 1z m10 -416 c12 0 18 -4 15 -10 -11 -18 -54 -11 -65 11 -10 19 -10
20 9 10 11 -6 29 -11 41 -11z"/>
<path d="M294 584 c-27 -13 -30 -19 -26 -47 l5 -32 13 32 c8 17 21 36 31 42
30 16 10 21 -23 5z"/>
<path d="M220 479 c0 -16 4 -28 9 -25 5 3 9 17 9 31 0 14 -4 25 -9 25 -5 0 -9
-14 -9 -31z"/>
<path d="M119 24 c-6 -7 -27 -15 -47 -17 -20 -2 -5 -4 34 -5 54 -2 73 2 77 12
7 19 -49 27 -64 10z"/>
</g>
</svg>
